<svg xmlns="http://www.w3.org/2000/svg" xmlns:xlink="http://www.w3.org/1999/xlink" version="1.1" id="Layer_1" x="0px" y="0px" width="100px" height="100px" viewBox="0 0 100 100" enable-background="new 0 0 100 100" xml:space="preserve">
<g>
	<path d="M18.888,83.547c-0.046,0-0.195-0.009-0.242-0.012c-0.552-0.047-1.095-0.366-1.365-0.85   c-0.271-0.483-0.334-1.072-0.085-1.567c1.786-3.542,2.691-7.322,2.691-11.24c0,0,0,0,0-0.002C10.413,64.079,5,55.813,5,47.088   c0-16.892,20.187-30.635,45-30.635c24.812,0,45,13.743,45,30.635S74.812,77.723,50,77.723c-4.233,0-8.433-0.401-12.495-1.192   C32.327,81.062,25.75,83.547,18.888,83.547z M50,19.786c-22.975,0-41.667,12.248-41.667,27.302c0,7.744,5.106,15.171,14.012,20.375   c0.488,0.284,0.798,0.799,0.824,1.363l0.02,0.324c0.018,0.242,0.033,0.483,0.033,0.728c0,3.525-0.645,6.951-1.922,10.218   c5.42-0.525,10.524-2.818,14.578-6.587c0.397-0.369,0.946-0.521,1.477-0.41C41.45,73.955,45.705,74.39,50,74.39   c22.976,0,41.667-12.248,41.667-27.302S72.976,19.786,50,19.786z"/>
</g>
</svg>